<?xml version="1.0" encoding="UTF-8"?>
<svg xmlns="http://www.w3.org/2000/svg" xmlns:xlink="http://www.w3.org/1999/xlink" width="40px" height="40px" viewBox="0 0 40 40" version="1.1">
<g id="surface1">
<path style=" stroke:none;fill-rule:evenodd;fill:rgb(0%,0%,0%);fill-opacity:1;" d="M 16.25 30 C 23.84375 30 30 23.84375 30 16.25 C 30 8.65625 23.84375 2.5 16.25 2.5 C 8.65625 2.5 2.5 8.65625 2.5 16.25 C 2.5 23.84375 8.65625 30 16.25 30 M 32.5 16.25 C 32.5 25.226562 25.226562 32.5 16.25 32.5 C 7.273438 32.5 0 25.226562 0 16.25 C 0 7.273438 7.273438 0 16.25 0 C 25.226562 0 32.5 7.273438 32.5 16.25 "/>
<path style=" stroke:none;fill-rule:nonzero;fill:rgb(0%,0%,0%);fill-opacity:1;" d="M 25.859375 29.355469 C 25.933594 29.453125 26.015625 29.550781 26.105469 29.640625 L 35.730469 39.265625 C 36.707031 40.246094 38.289062 40.246094 39.265625 39.269531 C 40.242188 38.292969 40.242188 36.710938 39.265625 35.734375 L 29.640625 26.109375 C 29.554688 26.015625 29.457031 25.933594 29.355469 25.859375 C 28.375 27.195312 27.195312 28.375 25.859375 29.359375 Z M 25.859375 29.355469 "/>
<path style=" stroke:none;fill-rule:evenodd;fill:rgb(0%,0%,0%);fill-opacity:1;" d="M 7.5 16.25 C 7.5 15.558594 8.058594 15 8.75 15 L 23.75 15 C 24.441406 15 25 15.558594 25 16.25 C 25 16.941406 24.441406 17.5 23.75 17.5 L 8.75 17.5 C 8.058594 17.5 7.5 16.941406 7.5 16.25 "/>
</g>
</svg>
