<?xml version="1.0" encoding="UTF-8"?>
<svg xmlns="http://www.w3.org/2000/svg" xmlns:xlink="http://www.w3.org/1999/xlink" width="40px" height="40px" viewBox="0 0 40 40" version="1.1">
<g id="surface1">
<path style=" stroke:none;fill-rule:nonzero;fill:rgb(0%,0%,0%);fill-opacity:1;" d="M 27.5 5 L 22.5 5 L 22.5 12.5 L 27.5 12.5 Z M 27.5 5 "/>
<path style=" stroke:none;fill-rule:nonzero;fill:rgb(0%,0%,0%);fill-opacity:1;" d="M 3.75 0 L 32.714844 0 C 33.710938 0 34.664062 0.398438 35.363281 1.101562 L 38.902344 4.636719 C 39.605469 5.339844 40 6.292969 40 7.285156 L 40 36.25 C 40 38.320312 38.320312 40 36.25 40 L 3.75 40 C 1.679688 40 0 38.320312 0 36.25 L 0 3.75 C 0 1.679688 1.679688 0 3.75 0 M 2.5 3.75 L 2.5 36.25 C 2.5 36.941406 3.058594 37.5 3.75 37.5 L 5 37.5 L 5 26.25 C 5 24.179688 6.679688 22.5 8.75 22.5 L 31.25 22.5 C 33.320312 22.5 35 24.179688 35 26.25 L 35 37.5 L 36.25 37.5 C 36.941406 37.5 37.5 36.941406 37.5 36.25 L 37.5 7.285156 C 37.5 6.953125 37.367188 6.636719 37.136719 6.402344 L 33.597656 2.863281 C 33.363281 2.632812 33.046875 2.5 32.714844 2.5 L 32.5 2.5 L 32.5 13.75 C 32.5 15.820312 30.820312 17.5 28.75 17.5 L 11.25 17.5 C 9.179688 17.5 7.5 15.820312 7.5 13.75 L 7.5 2.5 L 3.75 2.5 C 3.058594 2.5 2.5 3.058594 2.5 3.75 M 10 13.75 C 10 14.441406 10.558594 15 11.25 15 L 28.75 15 C 29.441406 15 30 14.441406 30 13.75 L 30 2.5 L 10 2.5 Z M 7.5 37.5 L 32.5 37.5 L 32.5 26.25 C 32.5 25.558594 31.941406 25 31.25 25 L 8.75 25 C 8.058594 25 7.5 25.558594 7.5 26.25 Z M 7.5 37.5 "/>
</g>
</svg>
