<?xml version="1.0" encoding="UTF-8"?>
<svg xmlns="http://www.w3.org/2000/svg" xmlns:xlink="http://www.w3.org/1999/xlink" width="40px" height="40px" viewBox="0 0 40 40" version="1.1">
<g id="surface1">
<path style=" stroke:none;fill-rule:evenodd;fill:rgb(0%,0%,0%);fill-opacity:1;" d="M 2.863281 12.136719 C 2.628906 11.902344 2.496094 11.582031 2.496094 11.25 C 2.496094 10.917969 2.628906 10.597656 2.863281 10.363281 L 12.863281 0.363281 C 13.355469 -0.125 14.144531 -0.125 14.636719 0.363281 C 15.125 0.855469 15.125 1.644531 14.636719 2.136719 L 6.765625 10 L 31.25 10 C 34.703125 10 37.5 12.796875 37.5 16.25 L 37.5 36.25 C 37.5 36.941406 36.941406 37.5 36.25 37.5 C 35.558594 37.5 35 36.941406 35 36.25 L 35 16.25 C 35 14.179688 33.320312 12.5 31.25 12.5 L 6.765625 12.5 L 14.636719 20.363281 C 15.125 20.855469 15.125 21.644531 14.636719 22.136719 C 14.144531 22.625 13.355469 22.625 12.863281 22.136719 Z M 2.863281 12.136719 "/>
</g>
</svg>
