<?xml version="1.0" encoding="UTF-8"?>
<svg xmlns="http://www.w3.org/2000/svg" xmlns:xlink="http://www.w3.org/1999/xlink" width="40px" height="40px" viewBox="0 0 40 40" version="1.1">
<g id="surface1">
<path style=" stroke:none;fill-rule:nonzero;fill:rgb(0%,0%,0%);fill-opacity:1;" d="M 2.5 8.75 C 2.5 6.679688 4.179688 5 6.25 5 L 13.160156 5 C 15.554688 5 17.558594 6.398438 18.9375 7.960938 C 19.960938 9.121094 21.199219 10 22.5 10 L 33.75 10 C 35.820312 10 37.5 11.679688 37.5 13.75 L 37.5 15.351562 C 38.925781 16.011719 39.851562 17.539062 39.640625 19.214844 L 38.039062 32.023438 C 37.648438 35.15625 34.988281 37.503906 31.832031 37.5 L 8.164062 37.5 C 5.011719 37.5 2.351562 35.152344 1.960938 32.023438 L 0.363281 19.214844 C 0.160156 17.597656 1.023438 16.039062 2.5 15.351562 Z M 5 15 L 35 15 L 35 13.75 C 35 13.058594 34.441406 12.5 33.75 12.5 L 22.5 12.5 C 20.089844 12.5 18.226562 10.925781 17.066406 9.613281 C 15.933594 8.335938 14.550781 7.5 13.160156 7.5 L 6.25 7.5 C 5.558594 7.5 5 8.058594 5 8.75 Z M 4.082031 17.5 C 3.722656 17.5 3.382812 17.652344 3.144531 17.921875 C 2.910156 18.191406 2.796875 18.550781 2.84375 18.90625 L 4.441406 31.714844 C 4.675781 33.59375 6.273438 35 8.164062 35 L 31.835938 35 C 33.726562 35 35.324219 33.59375 35.558594 31.714844 L 37.15625 18.90625 C 37.203125 18.550781 37.089844 18.191406 36.855469 17.921875 C 36.617188 17.652344 36.277344 17.5 35.917969 17.5 Z M 4.082031 17.5 "/>
</g>
</svg>
