<?xml version="1.0" encoding="UTF-8"?>
<svg xmlns="http://www.w3.org/2000/svg" xmlns:xlink="http://www.w3.org/1999/xlink" width="40px" height="40px" viewBox="0 0 40 40" version="1.1">
<g id="surface1">
<path style=" stroke:none;fill-rule:evenodd;fill:rgb(0%,0%,0%);fill-opacity:1;" d="M 37.136719 12.136719 C 37.371094 11.902344 37.503906 11.582031 37.503906 11.25 C 37.503906 10.917969 37.371094 10.597656 37.136719 10.363281 L 27.136719 0.363281 C 26.644531 -0.125 25.855469 -0.125 25.363281 0.363281 C 24.875 0.855469 24.875 1.644531 25.363281 2.136719 L 33.234375 10 L 8.75 10 C 5.296875 10 2.5 12.796875 2.5 16.25 L 2.5 36.25 C 2.5 36.941406 3.058594 37.5 3.75 37.5 C 4.441406 37.5 5 36.941406 5 36.25 L 5 16.25 C 5 14.179688 6.679688 12.5 8.75 12.5 L 33.234375 12.5 L 25.363281 20.363281 C 24.875 20.855469 24.875 21.644531 25.363281 22.136719 C 25.855469 22.625 26.644531 22.625 27.136719 22.136719 Z M 37.136719 12.136719 "/>
</g>
</svg>
